<svg width="16" height="18" viewBox="0 0 16 18" fill="none" xmlns="http://www.w3.org/2000/svg"><path fill-rule="evenodd" clip-rule="evenodd" d="M2.25 4.15129C2.25 5.1233 2.6869 5.99327 3.37503 6.57554C2.6869 7.1578 2.25 8.02777 2.25 8.99978C2.25 9.97179 2.6869 10.8418 3.37503 11.424C2.6869 12.0063 2.25 12.8763 2.25 13.8483C2.25 15.6013 3.67116 17.0225 5.42424 17.0225H5.5C7.29493 17.0225 8.75 15.5674 8.75 13.7725V12.174V11.6971C9.23602 11.9994 9.80974 12.174 10.4242 12.174H10.5758C12.3288 12.174 13.75 10.7529 13.75 8.99978C13.75 8.02777 13.3131 7.1578 12.625 6.57554C13.3131 5.99327 13.75 5.1233 13.75 4.15129C13.75 2.39821 12.3288 0.977051 10.5758 0.977051H8.75H8H7.25H5.42424C3.67116 0.977051 2.25 2.39821 2.25 4.15129ZM10.5758 5.82554C11.5004 5.82554 12.25 5.07595 12.25 4.15129C12.25 3.22663 11.5004 2.47705 10.5758 2.47705H8.75V5.82554H10.4242H10.5758ZM7.25 8.99978V7.32554H5.42424C4.49958 7.32554 3.75 8.07512 3.75 8.99978C3.75 9.92444 4.49958 10.674 5.42424 10.674H7.25V8.99978ZM8.75 8.99978C8.75 9.92444 9.49958 10.674 10.4242 10.674H10.5758C11.5004 10.674 12.25 9.92444 12.25 8.99978C12.25 8.07512 11.5004 7.32554 10.5758 7.32554H10.4242C9.49958 7.32554 8.75 8.07512 8.75 8.99978ZM5.42424 12.174L7.25 12.174V13.7725C7.25 14.739 6.4665 15.5225 5.5 15.5225H5.42424C4.49958 15.5225 3.75 14.7729 3.75 13.8483C3.75 12.9236 4.49958 12.174 5.42424 12.174ZM7.25 5.82554H5.42424C4.49958 5.82554 3.75 5.07595 3.75 4.15129C3.75 3.22663 4.49958 2.47705 5.42424 2.47705H7.25V5.82554Z" fill="#9333EA"/></svg>